<?xml version="1.0" standalone="no"?>
 <!DOCTYPE svg PUBLIC "-//W3C//DTD SVG 1.1//EN" 
 "http://www.w3.org/Graphics/SVG/1.1/DTD/svg11.dtd"> 
<svg xmlns="http://www.w3.org/2000/svg" version="1.1" 
    width="29.7002cm" height="21.0007cm" viewBox="0 0 116930 82680 ">
<title>SVG Picture created as mag_stirrer-F.Cu.svg date 2017/09/04 14:58:12 </title>
  <desc>Picture generated by PCBNEW </desc>
<g style="fill:#000000; fill-opacity:1;stroke:#000000; stroke-opacity:1;
stroke-linecap:round; stroke-linejoin:round; "
 transform="translate(0 0) scale(1 1)">
</g>
<g style="fill:#000000; fill-opacity:0.0; 
stroke:#000000; stroke-width:-0.000393701; stroke-opacity:1; 
stroke-linecap:round; stroke-linejoin:round;">
</g>
<g style="fill:#000000; fill-opacity:0.0; 
stroke:#000000; stroke-width:0; stroke-opacity:1; 
stroke-linecap:round; stroke-linejoin:round;">
</g>
<g style="fill:#000000; fill-opacity:1.0; 
stroke:#000000; stroke-width:0; stroke-opacity:1; 
stroke-linecap:round; stroke-linejoin:round;">
<polyline style="fill-rule:evenodd;"
points="52779,43827
52779,43472
53094,43472
53094,43827
52779,43827
" /> 
<polyline style="fill-rule:evenodd;"
points="53605,43827
53605,43472
53920,43472
53920,43827
53605,43827
" /> 
<polyline style="fill-rule:evenodd;"
points="53737,41253
53737,41746
53146,41746
53146,41253
53737,41253
" /> 
<polyline style="fill-rule:evenodd;"
points="52753,41253
52753,41746
52162,41746
52162,41253
52753,41253
" /> 
</g>
<g style="fill:#000000; fill-opacity:1.0; 
stroke:#000000; stroke-width:594.488; stroke-opacity:1; 
stroke-linecap:round; stroke-linejoin:round;">
</g>
<g style="fill:#000000; fill-opacity:0.0; 
stroke:#000000; stroke-width:594.488; stroke-opacity:1; 
stroke-linecap:round; stroke-linejoin:round;">
<path d="M50350 42204
L50350 42795
" />
<path d="M51350 42204
L51350 42795
" />
</g>
<g style="fill:#000000; fill-opacity:0.0; 
stroke:#000000; stroke-width:0; stroke-opacity:1; 
stroke-linecap:round; stroke-linejoin:round;">
</g>
<g style="fill:#000000; fill-opacity:1.0; 
stroke:#000000; stroke-width:0; stroke-opacity:1; 
stroke-linecap:round; stroke-linejoin:round;">
<polyline style="fill-rule:evenodd;"
points="50585,44285
51214,44285
51214,44914
50585,44914
50585,44285
" /> 
<circle cx="50900" cy="45387.4" r="314.961" /> 
</g>
<g style="fill:#000000; fill-opacity:1.0; 
stroke:#000000; stroke-width:19.685; stroke-opacity:1; 
stroke-linecap:round; stroke-linejoin:round;">
</g>
<g style="fill:#000000; fill-opacity:1.0; 
stroke:#000000; stroke-width:0; stroke-opacity:1; 
stroke-linecap:round; stroke-linejoin:round;">
<polyline style="fill-rule:evenodd;"
points="52162,40996
52162,40503
52753,40503
52753,40996
52162,40996
" /> 
<polyline style="fill-rule:evenodd;"
points="53146,40996
53146,40503
53737,40503
53737,40996
53146,40996
" /> 
<polyline style="fill-rule:evenodd;"
points="59104,46104
58395,46104
58395,45395
59104,45395
59104,46104
" /> 
<circle cx="58750" cy="44750" r="354.331" /> 
</g>
<g style="fill:#000000; fill-opacity:1.0; 
stroke:#000000; stroke-width:19.685; stroke-opacity:1; 
stroke-linecap:round; stroke-linejoin:round;">
</g>
<g style="fill:#000000; fill-opacity:1.0; 
stroke:#000000; stroke-width:0; stroke-opacity:1; 
stroke-linecap:round; stroke-linejoin:round;">
<polyline style="fill-rule:evenodd;"
points="57322,41179
57677,41179
57677,41494
57322,41494
57322,41179
" /> 
<polyline style="fill-rule:evenodd;"
points="57322,42005
57677,42005
57677,42320
57322,42320
57322,42005
" /> 
<polyline style="fill-rule:evenodd;"
points="57322,42679
57677,42679
57677,42994
57322,42994
57322,42679
" /> 
<polyline style="fill-rule:evenodd;"
points="57322,43505
57677,43505
57677,43820
57322,43820
57322,43505
" /> 
<circle cx="52500" cy="45150" r="265.748" /> 
</g>
<g style="fill:#000000; fill-opacity:1.0; 
stroke:#000000; stroke-width:19.685; stroke-opacity:1; 
stroke-linecap:round; stroke-linejoin:round;">
</g>
<g style="fill:#000000; fill-opacity:1.0; 
stroke:#000000; stroke-width:0; stroke-opacity:1; 
stroke-linecap:round; stroke-linejoin:round;">
<circle cx="53287.4" cy="45150" r="265.748" /> 
</g>
<g style="fill:#000000; fill-opacity:1.0; 
stroke:#000000; stroke-width:19.685; stroke-opacity:1; 
stroke-linecap:round; stroke-linejoin:round;">
</g>
<g style="fill:#000000; fill-opacity:1.0; 
stroke:#000000; stroke-width:0; stroke-opacity:1; 
stroke-linecap:round; stroke-linejoin:round;">
<polyline style="fill-rule:evenodd;"
points="56438,40705
56438,40194
56713,40194
56713,40705
56438,40705
" /> 
<polyline style="fill-rule:evenodd;"
points="57186,40705
57186,40194
57461,40194
57461,40705
57186,40705
" /> 
<polyline style="fill-rule:evenodd;"
points="52856,42427
52856,42072
53053,42072
53053,42427
52856,42427
" /> 
<polyline style="fill-rule:evenodd;"
points="53446,42427
53446,42072
53643,42072
53643,42427
53446,42427
" /> 
<circle cx="58700" cy="42200" r="393.701" /> 
</g>
<g style="fill:#000000; fill-opacity:1.0; 
stroke:#000000; stroke-width:19.685; stroke-opacity:1; 
stroke-linecap:round; stroke-linejoin:round;">
</g>
<g style="fill:#000000; fill-opacity:1.0; 
stroke:#000000; stroke-width:0; stroke-opacity:1; 
stroke-linecap:round; stroke-linejoin:round;">
<circle cx="58700" cy="43200" r="393.701" /> 
</g>
<g style="fill:#000000; fill-opacity:1.0; 
stroke:#000000; stroke-width:19.685; stroke-opacity:1; 
stroke-linecap:round; stroke-linejoin:round;">
</g>
<g style="fill:#000000; fill-opacity:1.0; 
stroke:#000000; stroke-width:0; stroke-opacity:1; 
stroke-linecap:round; stroke-linejoin:round;">
<circle cx="58700" cy="41200" r="393.701" /> 
</g>
<g style="fill:#000000; fill-opacity:1.0; 
stroke:#000000; stroke-width:19.685; stroke-opacity:1; 
stroke-linecap:round; stroke-linejoin:round;">
</g>
<g style="fill:#000000; fill-opacity:1.0; 
stroke:#000000; stroke-width:0; stroke-opacity:1; 
stroke-linecap:round; stroke-linejoin:round;">
<polyline style="fill-rule:evenodd;"
points="56868,42631
56868,42868
56257,42868
56257,42631
56868,42631
" /> 
<polyline style="fill-rule:evenodd;"
points="56868,42131
56868,42368
56257,42368
56257,42131
56868,42131
" /> 
<polyline style="fill-rule:evenodd;"
points="56868,41631
56868,41868
56257,41868
56257,41631
56868,41631
" /> 
<polyline style="fill-rule:evenodd;"
points="56868,41131
56868,41368
56257,41368
56257,41131
56868,41131
" /> 
<polyline style="fill-rule:evenodd;"
points="54742,41131
54742,41368
54131,41368
54131,41131
54742,41131
" /> 
<polyline style="fill-rule:evenodd;"
points="54742,41631
54742,41868
54131,41868
54131,41631
54742,41631
" /> 
<polyline style="fill-rule:evenodd;"
points="54742,42131
54742,42368
54131,42368
54131,42131
54742,42131
" /> 
<polyline style="fill-rule:evenodd;"
points="54742,42631
54742,42868
54131,42868
54131,42631
54742,42631
" /> 
</g>
<g style="fill:#000000; fill-opacity:1.0; 
stroke:#000000; stroke-width:800; stroke-opacity:1; 
stroke-linecap:round; stroke-linejoin:round;">
</g>
<g style="fill:#000000; fill-opacity:0.0; 
stroke:#000000; stroke-width:800; stroke-opacity:1; 
stroke-linecap:round; stroke-linejoin:round;">
<path d="M55900 45150
L55900 45350
" />
<path d="M56900 45150
L56900 45350
" />
<path d="M54900 45150
L54900 45350
" />
</g>
<g style="fill:#000000; fill-opacity:0.0; 
stroke:#000000; stroke-width:0; stroke-opacity:1; 
stroke-linecap:round; stroke-linejoin:round;">
</g>
<g style="fill:#000000; fill-opacity:1.0; 
stroke:#000000; stroke-width:0; stroke-opacity:1; 
stroke-linecap:round; stroke-linejoin:round;">
<polyline style="fill-rule:evenodd;"
points="49265,43784
49265,44315
48734,44315
48734,43784
49265,43784
" /> 
</g>
<g style="fill:#000000; fill-opacity:1.0; 
stroke:#000000; stroke-width:531.496; stroke-opacity:1; 
stroke-linecap:round; stroke-linejoin:round;">
</g>
<g style="fill:#000000; fill-opacity:0.0; 
stroke:#000000; stroke-width:531.496; stroke-opacity:1; 
stroke-linecap:round; stroke-linejoin:round;">
<path d="M49000 43262
L49000 43262
" />
</g>
<g style="fill:#000000; fill-opacity:0.0; 
stroke:#000000; stroke-width:98.4252; stroke-opacity:1; 
stroke-linecap:round; stroke-linejoin:round;">
<path d="M56200 40450
L56575 40450
" />
<path d="M56562 41250
L56562 40462
" />
<path d="M56562 40462
L56575 40450
" />
<path d="M56425 40450
L56200 40450
" />
<path d="M56200 40450
L56000 40450
" />
<path d="M56425 40450
L56425 40425
" />
<path d="M56000 40450
L55750 40200
" />
<path d="M55750 40200
L53150 40200
" />
<path d="M53150 40200
L52954 40395
" />
<path d="M52954 40395
L52954 42250
" />
<path d="M52954 42250
L51600 42250
" />
<path d="M51600 42250
L51350 42500
" />
<path d="M56562 41250
L56562 41162
" />
<path d="M52500 44086
L52500 45150
" />
<path d="M50900 44600
L50900 44400
" />
<path d="M50900 44400
L51213 44086
" />
<path d="M51213 44086
L52500 44086
" />
<path d="M53150 42900
L52936 42900
" />
<path d="M52936 42900
L52950 42900
" />
<path d="M52950 42900
L52936 42900
" />
<path d="M54437 42750
L54050 42750
" />
<path d="M53900 42900
L53150 42900
" />
<path d="M53150 42900
L53000 42900
" />
<path d="M54050 42750
L53900 42900
" />
<path d="M52500 44086
L52936 43650
" />
<path d="M52936 43650
L52936 42900
" />
<path d="M52936 42900
L52936 42268
" />
<path d="M52936 42268
L52954 42250
" />
<path d="M56625 41187
L56562 41250
" />
<path d="M49755 44005
L50094 44005
" />
<path d="M51450 40750
L52457 40750
" />
<path d="M50850 41350
L51450 40750
" />
<path d="M50850 43250
L50850 41350
" />
<path d="M50094 44005
L50850 43250
" />
<path d="M56562 42750
L56562 44212
" />
<path d="M56900 44550
L56900 45250
" />
<path d="M56562 44212
L56900 44550
" />
<path d="M52457 41500
L52457 40750
" />
<path d="M58750 45750
L58750 46000
" />
<path d="M49755 44005
L49031 44005
" />
<path d="M53442 40750
L55250 40750
" />
<path d="M55500 41000
L55500 41750
" />
<path d="M55250 40750
L55500 41000
" />
<path d="M54437 41750
L55500 41750
" />
<path d="M56000 42250
L56562 42250
" />
<path d="M55500 41750
L56000 42250
" />
<path d="M56562 42250
L57500 42250
" />
<path d="M57500 42250
L57500 42163
" />
<path d="M57500 42163
L57500 42836
" />
<path d="M53442 41500
L53850 41500
" />
<path d="M54100 41250
L54437 41250
" />
<path d="M53850 41500
L54100 41250
" />
<path d="M58750 44750
L58900 44750
" />
<path d="M58900 44750
L59400 44250
" />
<path d="M59400 44250
L59400 40850
" />
<path d="M59400 40850
L59000 40450
" />
<path d="M59000 40450
L57324 40450
" />
<path d="M57500 41336
L57663 41336
" />
<path d="M57663 41336
L57800 41200
" />
<path d="M57800 41200
L58700 41200
" />
<path d="M57500 43663
L58236 43663
" />
<path d="M58236 43663
L58700 43200
" />
<path d="M53287 44750
L53287 45150
" />
<path d="M53287 45150
L53287 45687
" />
<path d="M53287 45687
L53700 46100
" />
<path d="M53700 46100
L55700 46100
" />
<path d="M55700 46100
L55900 45900
" />
<path d="M55900 45900
L55900 45250
" />
<path d="M53763 43650
L53763 44136
" />
<path d="M53287 44612
L53287 44750
" />
<path d="M53287 44750
L53287 45500
" />
<path d="M53763 44136
L53287 44612
" />
<path d="M53250 45462
L53287 45500
" />
<path d="M49031 43238
L50011 43238
" />
<path d="M50250 43000
L50250 42000
" />
<path d="M50011 43238
L50250 43000
" />
<path d="M54437 42250
L54750 42250
" />
<path d="M55000 42500
L55000 45500
" />
<path d="M54750 42250
L55000 42500
" />
<path d="M53545 42250
L54437 42250
" />
<path d="M56562 41750
L58000 41750
" />
<path d="M58000 41750
L58450 42200
" />
<path d="M58450 42200
L58700 42200
" />
</g>
<g style="fill:#000000; fill-opacity:1.0; 
stroke:#000000; stroke-width:100; stroke-opacity:1; 
stroke-linecap:round; stroke-linejoin:round;">
<polyline style="fill-rule:evenodd;"
points="52743,40183
52696,40253
52570,40253
52507,40316
52507,40700
52515,40700
52515,40800
52507,40800
52507,41450
52515,41450
52515,41550
52507,41550
52507,41557
52407,41557
52407,41550
51975,41550
51912,41612
51912,41795
51950,41887
52013,41950
51836,41950
51736,41801
51559,41682
51350,41640
51140,41682
50963,41801
50850,41970
50736,41801
50559,41682
50350,41640
50140,41682
49963,41801
49844,41978
49802,42188
49802,42811
49828,42938
49402,42938
49374,42897
49207,42786
49010,42746
48989,42746
48792,42786
48625,42897
48513,43065
48474,43262
48513,43459
48590,43574
48522,43642
48484,43734
48484,43937
48546,44000
48950,44000
48950,43992
49050,43992
49050,44000
49453,44000
49515,43937
49515,43734
49477,43642
49409,43574
49434,43537
50011,43537
50126,43514
50223,43449
50320,43353
50350,43359
50559,43317
50736,43198
50850,43029
50963,43198
51140,43317
51350,43359
51559,43317
51736,43198
51855,43021
51897,42811
51897,42549
52637,42549
52637,43266
52601,43290
52544,43373
52524,43472
52524,43639
52376,43787
51213,43787
51098,43810
51001,43875
50846,44030
50585,44030
50492,44047
50407,44102
50350,44185
50330,44285
50330,44914
50347,45007
50402,45092
50404,45094
50330,45302
50341,45526
50406,45684
50503,45713
50829,45387
50823,45381
50894,45311
50900,45316
50905,45311
50976,45381
50970,45387
51296,45713
51393,45684
51469,45472
51458,45248
51395,45094
51449,45014
51469,44914
51469,44385
52200,44385
52200,44719
52063,44857
51984,45046
51984,45252
52062,45441
52207,45586
52396,45665
52602,45665
52791,45587
52893,45485
52970,45562
52973,45577
52988,45598
52988,45687
53010,45801
53075,45898
53488,46311
53585,46376
53700,46399
55700,46399
55814,46376
55911,46311
56111,46111
56176,46014
56176,46014
56191,45936
56359,45824
56405,45755
56475,45844
56697,45969
56749,45982
56850,45935
56850,45300
56950,45300
56950,45935
57050,45982
57102,45969
57293,45862
58145,45862
58145,46154
58183,46245
58254,46316
58345,46354
58637,46354
58700,46291
58700,45800
58800,45800
58800,46291
58862,46354
59154,46354
59245,46316
59316,46245
59354,46154
59354,45862
59291,45800
58800,45800
58700,45800
58208,45800
58145,45862
57293,45862
57324,45844
57481,45644
57550,45400
57550,45300
56950,45300
56850,45300
56842,45300
56842,45200
56850,45200
56850,44564
56950,44564
56950,45200
57550,45200
57550,45100
57481,44855
57324,44655
57102,44530
57050,44517
56950,44564
56850,44564
56749,44517
56697,44530
56475,44655
56405,44744
56359,44675
56148,44534
55900,44485
55651,44534
55440,44675
55400,44736
55359,44675
55299,44635
55299,42862
56007,42862
56007,42917
56045,43009
56116,43080
56208,43118
56450,43118
56512,43055
56512,42800
56070,42800
56007,42862
55299,42862
55299,42500
55276,42385
55211,42288
54983,42060
54981,42049
55376,42049
55788,42461
55885,42526
56000,42549
56021,42549
56007,42582
56007,42637
56070,42700
56512,42700
56512,42692
56612,42692
56612,42700
56620,42700
56620,42800
56612,42800
56612,43055
56675,43118
56917,43118
57009,43080
57072,43017
57085,43086
57140,43171
57223,43228
57322,43248
57677,43248
57769,43231
57854,43176
57911,43093
57932,42994
57932,42679
57914,42586
57859,42501
57857,42499
57911,42420
57932,42320
57932,42105
58056,42229
58056,42327
58153,42564
58289,42700
58154,42834
58056,43071
58056,43327
58071,43364
57883,43364
57859,43328
57776,43271
57677,43251
57322,43251
57230,43268
57145,43323
57088,43406
57067,43505
57067,43820
57085,43913
57140,43998
57223,44055
57322,44075
57677,44075
57769,44058
57854,44003
57882,43962
58236,43962
58351,43939
58448,43874
58506,43816
58571,43843
58827,43843
59064,43746
59100,43709
59100,44126
59019,44207
58870,44145
58630,44145
58408,44237
58237,44407
58145,44629
58145,44869
58237,45091
58307,45161
58254,45183
58183,45254
58145,45345
58145,45637
58208,45700
58700,45700
58700,45692
58800,45692
58800,45700
59291,45700
59354,45637
59354,45345
59316,45254
59245,45183
59192,45161
59262,45092
59354,44870
59354,44718
59611,44461
59676,44364
59699,44250
59699,40850
59676,40735
59611,40638
59211,40238
59114,40173
59000,40150
57708,40150
57699,40101
57666,40050
64450,40050
64450,46450
47550,46450
47550,45784
50573,45784
50603,45881
50814,45957
51039,45946
51196,45881
51226,45784
50900,45458
50573,45784
47550,45784
47550,44162
48484,44162
48484,44365
48522,44457
48592,44527
48684,44565
48887,44565
48950,44503
48950,44100
49050,44100
49050,44503
49112,44565
49315,44565
49407,44527
49477,44457
49515,44365
49515,44162
49453,44100
49050,44100
48950,44100
48546,44100
48484,44162
47550,44162
47550,40862
51912,40862
51912,41045
51945,41125
51912,41204
51912,41387
51975,41450
52407,41450
52407,40800
51975,40800
51912,40862
47550,40862
47550,40454
51912,40454
51912,40637
51975,40700
52407,40700
52407,40316
52345,40253
52112,40253
52020,40291
51950,40362
51912,40454
47550,40454
47550,40050
52876,40050
52743,40183
" /> 
</g>
<g style="fill:#FFFFFF; fill-opacity:1.0; 
stroke:#FFFFFF; stroke-width:100; stroke-opacity:1; 
stroke-linecap:round; stroke-linejoin:round;">
</g>
<g style="fill:#000000; fill-opacity:1.0; 
stroke:#000000; stroke-width:100; stroke-opacity:1; 
stroke-linecap:round; stroke-linejoin:round;">
</g> 
</svg>
